[CENTER][B][FONT=Arial][SIZE=5][COLOR=Red]Tanu Weds Manu (2011) - Xvid -  1/3DvDRip - 06ch -AC3 - E-Subs xRG[/COLOR][/SIZE][/FONT][/B]

[URL="http://img607.imageshack.us/i/vlcsnap2011033119h12m33.png/"][IMG]http://img607.imageshack.us/img607/6540/vlcsnap2011033119h12m33.png[/IMG][/URL] 



[URL="http://img809.imageshack.us/i/vlcsnap2011033119h20m09.png/"][IMG]http://img809.imageshack.us/img809/2687/vlcsnap2011033119h20m09.png[/IMG][/URL]
 [URL="http://img828.imageshack.us/i/vlcsnap2011033119h21m30.png/"][IMG]http://img828.imageshack.us/img828/205/vlcsnap2011033119h21m30.png[/IMG][/URL]
 [URL="http://img171.imageshack.us/i/vlcsnap2011033119h23m58.png/"][IMG]http://img171.imageshack.us/img171/7200/vlcsnap2011033119h23m58.png[/IMG][/URL]
 [URL="http://img834.imageshack.us/i/vlcsnap2011033119h24m48.png/"][IMG]http://img834.imageshack.us/img834/6817/vlcsnap2011033119h24m48.png[/IMG][/URL]
 [URL="http://img807.imageshack.us/i/vlcsnap2011033119h24m57.png/"][IMG]http://img807.imageshack.us/img807/2465/vlcsnap2011033119h24m57.png[/IMG][/URL]
 [URL="http://img862.imageshack.us/i/vlcsnap2011033119h25m13.png/"][IMG]http://img862.imageshack.us/img862/620/vlcsnap2011033119h25m13.png[/IMG][/URL]
 [URL="http://img28.imageshack.us/i/vlcsnap2011033119h25m27.png/"][IMG]http://img28.imageshack.us/img28/7518/vlcsnap2011033119h25m27.png[/IMG][/URL]
 [URL="http://img62.imageshack.us/i/vlcsnap2011033119h25m43.png/"][IMG]http://img62.imageshack.us/img62/7519/vlcsnap2011033119h25m43.png[/IMG][/URL]
 [URL="http://img231.imageshack.us/i/vlcsnap2011033119h26m19.png/"][IMG]http://img231.imageshack.us/img231/4870/vlcsnap2011033119h26m19.png[/IMG][/URL]
 [URL="http://img822.imageshack.us/i/vlcsnap2011033119h27m25.png/"][IMG]http://img822.imageshack.us/img822/8145/vlcsnap2011033119h27m25.png[/IMG][/URL]
 [URL="http://img199.imageshack.us/i/vlcsnap2011033119h28m10.png/"][IMG]http://img199.imageshack.us/img199/6248/vlcsnap2011033119h28m10.png[/IMG][/URL]
 [URL="http://img860.imageshack.us/i/vlcsnap2011033119h28m43.png/"][IMG]http://img860.imageshack.us/img860/6508/vlcsnap2011033119h28m43.png[/IMG][/URL]


[B][SIZE=5][COLOR=Red]

Info[/COLOR][/SIZE][COLOR=Red] [/COLOR][/B]

[code]Complete name                    : Tanu Weds Manu (2011) - Xvid -  1-3DvDRip - 06ch -AC3 - E-Subs[~TDT~].avi
IMDB                             : www.imdb.com/title/tt1694542/
Format                           : AVI
Format/Info                      : Audio Video Interleave
File size                        : 1.46 GiB
Duration                         : 1h 59mn
Overall bit rate                 : 1 748 Kbps
Writing application              : VirtualDubMod 1.5.10.3 | www.virtualdub-fr.org || (build 2550/release)
Writing library                  : VirtualDubMod build 2550/release
Source                           : Dvd9 
[/code]

[code]Quote
Video
ID                               : 0
Format                           : MPEG-4 Visual
Format profile                   : Advanced Simple@L5
Format settings, BVOP            : 1
Format settings, QPel            : No
Format settings, GMC             : No warppoints
Format settings, Matrix          : Default (H.263)
Muxing mode                      : Packed bitstream
Codec ID                         : XVID
Codec ID/Hint                    : XviD
Duration                         : 1h 59mn
Bit rate                         : 1 291 Kbps
Width                            : 720 pixels
Height                           : 304 pixels
Display aspect ratio             : 2.35:1
Frame rate                       : 23.976 fps
Color space                      : YUV
Chroma subsampling               : 4:2:0
Bit depth                        : 8 bits
Scan type                        : Progressive
Compression mode                 : Lossy
Bits/(Pixel*Frame)               : 0.246
Stream size                      : 1.08 GiB (74%)
Writing library                  : XviD 1.2.1 (UTC 2008-12-04)

Audio
ID                               : 1
Format                           : AC-3
Format/Info                      : Audio Coding 3
Mode extension                   : CM (complete main)
Codec ID                         : 2000
Duration                         : 1h 59mn
Bit rate mode                    : Constant
Bit rate                         : 448 Kbps
Channel(s)                       : 6 channels
Channel positions                : Front: L C R, Side: L R, LFE
Sampling rate                    : 48.0 KHz
Bit depth                        : 16 bits
Compression mode                 : Lossy
Stream size                      : 382 MiB (26%)
Alignment                        : Split accross interleaves
Interleave, duration             : 42 ms (1.00 video frame)
Interleave, preload duration     : 500 ms

[/code][/CENTER]